<?xml version='1.0' encoding='UTF-8'?>
<svg width="49mm" height="49mm" version="1.1" viewBox="0 0 49 49" xmlns="http://www.w3.org/2000/svg"><path d="M4,4H5V5H4zM5,4H6V5H5zM6,4H7V5H6zM7,4H8V5H7zM8,4H9V5H8zM9,4H10V5H9zM10,4H11V5H10zM12,4H13V5H12zM15,4H16V5H15zM16,4H17V5H16zM19,4H20V5H19zM20,4H21V5H20zM22,4H23V5H22zM24,4H25V5H24zM27,4H28V5H27zM28,4H29V5H28zM29,4H30V5H29zM31,4H32V5H31zM32,4H33V5H32zM34,4H35V5H34zM35,4H36V5H35zM38,4H39V5H38zM39,4H40V5H39zM40,4H41V5H40zM41,4H42V5H41zM42,4H43V5H42zM43,4H44V5H43zM44,4H45V5H44zM4,5H5V6H4zM10,5H11V6H10zM15,5H16V6H15zM17,5H18V6H17zM19,5H20V6H19zM20,5H21V6H20zM23,5H24V6H23zM24,5H25V6H24zM27,5H28V6H27zM30,5H31V6H30zM31,5H32V6H31zM32,5H33V6H32zM33,5H34V6H33zM35,5H36V6H35zM38,5H39V6H38zM44,5H45V6H44zM4,6H5V7H4zM6,6H7V7H6zM7,6H8V7H7zM8,6H9V7H8zM10,6H11V7H10zM13,6H14V7H13zM15,6H16V7H15zM18,6H19V7H18zM23,6H24V7H23zM24,6H25V7H24zM25,6H26V7H25zM27,6H28V7H27zM28,6H29V7H28zM29,6H30V7H29zM30,6H31V7H30zM31,6H32V7H31zM35,6H36V7H35zM36,6H37V7H36zM38,6H39V7H38zM40,6H41V7H40zM41,6H42V7H41zM42,6H43V7H42zM44,6H45V7H44zM4,7H5V8H4zM6,7H7V8H6zM7,7H8V8H7zM8,7H9V8H8zM10,7H11V8H10zM12,7H13V8H12zM15,7H16V8H15zM17,7H18V8H17zM20,7H21V8H20zM21,7H22V8H21zM23,7H24V8H23zM24,7H25V8H24zM25,7H26V8H25zM28,7H29V8H28zM29,7H30V8H29zM30,7H31V8H30zM32,7H33V8H32zM33,7H34V8H33zM35,7H36V8H35zM38,7H39V8H38zM40,7H41V8H40zM41,7H42V8H41zM42,7H43V8H42zM44,7H45V8H44zM4,8H5V9H4zM6,8H7V9H6zM7,8H8V9H7zM8,8H9V9H8zM10,8H11V9H10zM17,8H18V9H17zM19,8H20V9H19zM20,8H21V9H20zM22,8H23V9H22zM24,8H25V9H24zM26,8H27V9H26zM30,8H31V9H30zM31,8H32V9H31zM35,8H36V9H35zM38,8H39V9H38zM40,8H41V9H40zM41,8H42V9H41zM42,8H43V9H42zM44,8H45V9H44zM4,9H5V10H4zM10,9H11V10H10zM14,9H15V10H14zM16,9H17V10H16zM18,9H19V10H18zM19,9H20V10H19zM21,9H22V10H21zM24,9H25V10H24zM25,9H26V10H25zM27,9H28V10H27zM28,9H29V10H28zM29,9H30V10H29zM30,9H31V10H30zM31,9H32V10H31zM32,9H33V10H32zM34,9H35V10H34zM35,9H36V10H35zM36,9H37V10H36zM38,9H39V10H38zM44,9H45V10H44zM4,10H5V11H4zM5,10H6V11H5zM6,10H7V11H6zM7,10H8V11H7zM8,10H9V11H8zM9,10H10V11H9zM10,10H11V11H10zM12,10H13V11H12zM14,10H15V11H14zM16,10H17V11H16zM18,10H19V11H18zM20,10H21V11H20zM22,10H23V11H22zM24,10H25V11H24zM26,10H27V11H26zM28,10H29V11H28zM30,10H31V11H30zM32,10H33V11H32zM34,10H35V11H34zM36,10H37V11H36zM38,10H39V11H38zM39,10H40V11H39zM40,10H41V11H40zM41,10H42V11H41zM42,10H43V11H42zM43,10H44V11H43zM44,10H45V11H44zM13,11H14V12H13zM15,11H16V12H15zM16,11H17V12H16zM17,11H18V12H17zM18,11H19V12H18zM19,11H20V12H19zM21,11H22V12H21zM22,11H23V12H22zM24,11H25V12H24zM27,11H28V12H27zM29,11H30V12H29zM30,11H31V12H30zM31,11H32V12H31zM32,11H33V12H32zM33,11H34V12H33zM34,11H35V12H34zM36,11H37V12H36zM6,12H7V13H6zM8,12H9V13H8zM9,12H10V13H9zM10,12H11V13H10zM12,12H13V13H12zM13,12H14V13H13zM17,12H18V13H17zM18,12H19V13H18zM20,12H21V13H20zM25,12H26V13H25zM28,12H29V13H28zM32,12H33V13H32zM33,12H34V13H33zM35,12H36V13H35zM37,12H38V13H37zM41,12H42V13H41zM44,12H45V13H44zM4,13H5V14H4zM6,13H7V14H6zM7,13H8V14H7zM9,13H10V14H9zM11,13H12V14H11zM12,13H13V14H12zM13,13H14V14H13zM16,13H17V14H16zM21,13H22V14H21zM23,13H24V14H23zM24,13H25V14H24zM29,13H30V14H29zM30,13H31V14H30zM32,13H33V14H32zM33,13H34V14H33zM36,13H37V14H36zM38,13H39V14H38zM41,13H42V14H41zM42,13H43V14H42zM43,13H44V14H43zM5,14H6V15H5zM6,14H7V15H6zM7,14H8V15H7zM9,14H10V15H9zM10,14H11V15H10zM11,14H12V15H11zM12,14H13V15H12zM13,14H14V15H13zM16,14H17V15H16zM18,14H19V15H18zM21,14H22V15H21zM22,14H23V15H22zM24,14H25V15H24zM25,14H26V15H25zM26,14H27V15H26zM27,14H28V15H27zM30,14H31V15H30zM34,14H35V15H34zM38,14H39V15H38zM39,14H40V15H39zM40,14H41V15H40zM42,14H43V15H42zM44,14H45V15H44zM5,15H6V16H5zM6,15H7V16H6zM7,15H8V16H7zM9,15H10V16H9zM11,15H12V16H11zM13,15H14V16H13zM14,15H15V16H14zM15,15H16V16H15zM16,15H17V16H16zM19,15H20V16H19zM21,15H22V16H21zM22,15H23V16H22zM25,15H26V16H25zM26,15H27V16H26zM28,15H29V16H28zM29,15H30V16H29zM33,15H34V16H33zM34,15H35V16H34zM36,15H37V16H36zM39,15H40V16H39zM6,16H7V17H6zM7,16H8V17H7zM8,16H9V17H8zM9,16H10V17H9zM10,16H11V17H10zM11,16H12V17H11zM12,16H13V17H12zM13,16H14V17H13zM16,16H17V17H16zM17,16H18V17H17zM18,16H19V17H18zM20,16H21V17H20zM22,16H23V17H22zM23,16H24V17H23zM24,16H25V17H24zM25,16H26V17H25zM26,16H27V17H26zM29,16H30V17H29zM30,16H31V17H30zM33,16H34V17H33zM35,16H36V17H35zM36,16H37V17H36zM38,16H39V17H38zM39,16H40V17H39zM41,16H42V17H41zM44,16H45V17H44zM5,17H6V18H5zM9,17H10V18H9zM12,17H13V18H12zM13,17H14V18H13zM14,17H15V18H14zM15,17H16V18H15zM16,17H17V18H16zM17,17H18V18H17zM18,17H19V18H18zM22,17H23V18H22zM23,17H24V18H23zM24,17H25V18H24zM25,17H26V18H25zM27,17H28V18H27zM30,17H31V18H30zM31,17H32V18H31zM35,17H36V18H35zM36,17H37V18H36zM39,17H40V18H39zM41,17H42V18H41zM43,17H44V18H43zM44,17H45V18H44zM4,18H5V19H4zM6,18H7V19H6zM7,18H8V19H7zM10,18H11V19H10zM11,18H12V19H11zM15,18H16V19H15zM17,18H18V19H17zM20,18H21V19H20zM22,18H23V19H22zM23,18H24V19H23zM25,18H26V19H25zM28,18H29V19H28zM30,18H31V19H30zM33,18H34V19H33zM35,18H36V19H35zM36,18H37V19H36zM38,18H39V19H38zM42,18H43V19H42zM43,18H44V19H43zM44,18H45V19H44zM4,19H5V20H4zM7,19H8V20H7zM8,19H9V20H8zM9,19H10V20H9zM11,19H12V20H11zM17,19H18V20H17zM19,19H20V20H19zM31,19H32V20H31zM33,19H34V20H33zM34,19H35V20H34zM36,19H37V20H36zM38,19H39V20H38zM39,19H40V20H39zM41,19H42V20H41zM44,19H45V20H44zM4,20H5V21H4zM5,20H6V21H5zM6,20H7V21H6zM7,20H8V21H7zM10,20H11V21H10zM15,20H16V21H15zM19,20H20V21H19zM21,20H22V21H21zM23,20H24V21H23zM24,20H25V21H24zM25,20H26V21H25zM28,20H29V21H28zM30,20H31V21H30zM32,20H33V21H32zM33,20H34V21H33zM35,20H36V21H35zM36,20H37V21H36zM38,20H39V21H38zM39,20H40V21H39zM41,20H42V21H41zM44,20H45V21H44zM6,21H7V22H6zM9,21H10V22H9zM16,21H17V22H16zM17,21H18V22H17zM18,21H19V22H18zM19,21H20V22H19zM20,21H21V22H20zM21,21H22V22H21zM22,21H23V22H22zM23,21H24V22H23zM26,21H27V22H26zM28,21H29V22H28zM36,21H37V22H36zM38,21H39V22H38zM44,21H45V22H44zM6,22H7V23H6zM7,22H8V23H7zM8,22H9V23H8zM10,22H11V23H10zM11,22H12V23H11zM12,22H13V23H12zM13,22H14V23H13zM19,22H20V23H19zM20,22H21V23H20zM24,22H25V23H24zM25,22H26V23H25zM32,22H33V23H32zM33,22H34V23H33zM37,22H38V23H37zM38,22H39V23H38zM40,22H41V23H40zM41,22H42V23H41zM42,22H43V23H42zM43,22H44V23H43zM44,22H45V23H44zM7,23H8V24H7zM15,23H16V24H15zM16,23H17V24H16zM18,23H19V24H18zM21,23H22V24H21zM22,23H23V24H22zM24,23H25V24H24zM25,23H26V24H25zM29,23H30V24H29zM30,23H31V24H30zM31,23H32V24H31zM36,23H37V24H36zM37,23H38V24H37zM38,23H39V24H38zM39,23H40V24H39zM44,23H45V24H44zM4,24H5V25H4zM5,24H6V25H5zM6,24H7V25H6zM8,24H9V25H8zM10,24H11V25H10zM11,24H12V25H11zM13,24H14V25H13zM16,24H17V25H16zM17,24H18V25H17zM19,24H20V25H19zM20,24H21V25H20zM21,24H22V25H21zM24,24H25V25H24zM26,24H27V25H26zM27,24H28V25H27zM29,24H30V25H29zM30,24H31V25H30zM31,24H32V25H31zM32,24H33V25H32zM35,24H36V25H35zM36,24H37V25H36zM38,24H39V25H38zM40,24H41V25H40zM43,24H44V25H43zM4,25H5V26H4zM5,25H6V26H5zM11,25H12V26H11zM12,25H13V26H12zM13,25H14V26H13zM14,25H15V26H14zM18,25H19V26H18zM19,25H20V26H19zM23,25H24V26H23zM24,25H25V26H24zM25,25H26V26H25zM28,25H29V26H28zM29,25H30V26H29zM32,25H33V26H32zM36,25H37V26H36zM37,25H38V26H37zM38,25H39V26H38zM40,25H41V26H40zM42,25H43V26H42zM43,25H44V26H43zM44,25H45V26H44zM4,26H5V27H4zM6,26H7V27H6zM9,26H10V27H9zM10,26H11V27H10zM11,26H12V27H11zM12,26H13V27H12zM16,26H17V27H16zM17,26H18V27H17zM18,26H19V27H18zM24,26H25V27H24zM27,26H28V27H27zM28,26H29V27H28zM29,26H30V27H29zM32,26H33V27H32zM33,26H34V27H33zM36,26H37V27H36zM38,26H39V27H38zM43,26H44V27H43zM44,26H45V27H44zM5,27H6V28H5zM6,27H7V28H6zM8,27H9V28H8zM12,27H13V28H12zM14,27H15V28H14zM16,27H17V28H16zM17,27H18V28H17zM18,27H19V28H18zM20,27H21V28H20zM21,27H22V28H21zM23,27H24V28H23zM28,27H29V28H28zM29,27H30V28H29zM32,27H33V28H32zM33,27H34V28H33zM34,27H35V28H34zM37,27H38V28H37zM40,27H41V28H40zM42,27H43V28H42zM6,28H7V29H6zM7,28H8V29H7zM8,28H9V29H8zM9,28H10V29H9zM10,28H11V29H10zM12,28H13V29H12zM14,28H15V29H14zM21,28H22V29H21zM23,28H24V29H23zM24,28H25V29H24zM25,28H26V29H25zM26,28H27V29H26zM33,28H34V29H33zM36,28H37V29H36zM37,28H38V29H37zM38,28H39V29H38zM42,28H43V29H42zM43,28H44V29H43zM7,29H8V30H7zM9,29H10V30H9zM11,29H12V30H11zM12,29H13V30H12zM13,29H14V30H13zM14,29H15V30H14zM15,29H16V30H15zM16,29H17V30H16zM18,29H19V30H18zM20,29H21V30H20zM25,29H26V30H25zM28,29H29V30H28zM30,29H31V30H30zM32,29H33V30H32zM34,29H35V30H34zM38,29H39V30H38zM44,29H45V30H44zM4,30H5V31H4zM5,30H6V31H5zM6,30H7V31H6zM7,30H8V31H7zM10,30H11V31H10zM17,30H18V31H17zM19,30H20V31H19zM20,30H21V31H20zM21,30H22V31H21zM22,30H23V31H22zM24,30H25V31H24zM25,30H26V31H25zM27,30H28V31H27zM33,30H34V31H33zM37,30H38V31H37zM42,30H43V31H42zM44,30H45V31H44zM5,31H6V32H5zM6,31H7V32H6zM7,31H8V32H7zM8,31H9V32H8zM12,31H13V32H12zM15,31H16V32H15zM16,31H17V32H16zM18,31H19V32H18zM20,31H21V32H20zM21,31H22V32H21zM22,31H23V32H22zM23,31H24V32H23zM25,31H26V32H25zM26,31H27V32H26zM28,31H29V32H28zM33,31H34V32H33zM36,31H37V32H36zM37,31H38V32H37zM38,31H39V32H38zM40,31H41V32H40zM43,31H44V32H43zM44,31H45V32H44zM4,32H5V33H4zM6,32H7V33H6zM7,32H8V33H7zM8,32H9V33H8zM9,32H10V33H9zM10,32H11V33H10zM13,32H14V33H13zM14,32H15V33H14zM15,32H16V33H15zM19,32H20V33H19zM24,32H25V33H24zM27,32H28V33H27zM31,32H32V33H31zM32,32H33V33H32zM33,32H34V33H33zM34,32H35V33H34zM35,32H36V33H35zM37,32H38V33H37zM39,32H40V33H39zM41,32H42V33H41zM44,32H45V33H44zM6,33H7V34H6zM12,33H13V34H12zM17,33H18V34H17zM19,33H20V34H19zM21,33H22V34H21zM26,33H27V34H26zM27,33H28V34H27zM28,33H29V34H28zM29,33H30V34H29zM31,33H32V34H31zM32,33H33V34H32zM35,33H36V34H35zM37,33H38V34H37zM39,33H40V34H39zM41,33H42V34H41zM43,33H44V34H43zM44,33H45V34H44zM4,34H5V35H4zM6,34H7V35H6zM7,34H8V35H7zM9,34H10V35H9zM10,34H11V35H10zM11,34H12V35H11zM12,34H13V35H12zM13,34H14V35H13zM14,34H15V35H14zM16,34H17V35H16zM17,34H18V35H17zM19,34H20V35H19zM22,34H23V35H22zM23,34H24V35H23zM24,34H25V35H24zM28,34H29V35H28zM30,34H31V35H30zM31,34H32V35H31zM32,34H33V35H32zM33,34H34V35H33zM40,34H41V35H40zM43,34H44V35H43zM44,34H45V35H44zM5,35H6V36H5zM7,35H8V36H7zM8,35H9V36H8zM9,35H10V36H9zM13,35H14V36H13zM14,35H15V36H14zM15,35H16V36H15zM16,35H17V36H16zM18,35H19V36H18zM19,35H20V36H19zM20,35H21V36H20zM21,35H22V36H21zM22,35H23V36H22zM26,35H27V36H26zM29,35H30V36H29zM32,35H33V36H32zM33,35H34V36H33zM34,35H35V36H34zM35,35H36V36H35zM37,35H38V36H37zM38,35H39V36H38zM39,35H40V36H39zM41,35H42V36H41zM43,35H44V36H43zM44,35H45V36H44zM4,36H5V37H4zM7,36H8V37H7zM10,36H11V37H10zM11,36H12V37H11zM13,36H14V37H13zM16,36H17V37H16zM19,36H20V37H19zM24,36H25V37H24zM26,36H27V37H26zM28,36H29V37H28zM30,36H31V37H30zM31,36H32V37H31zM32,36H33V37H32zM33,36H34V37H33zM36,36H37V37H36zM37,36H38V37H37zM38,36H39V37H38zM39,36H40V37H39zM40,36H41V37H40zM41,36H42V37H41zM44,36H45V37H44zM12,37H13V38H12zM17,37H18V38H17zM19,37H20V38H19zM20,37H21V38H20zM22,37H23V38H22zM23,37H24V38H23zM25,37H26V38H25zM26,37H27V38H26zM27,37H28V38H27zM28,37H29V38H28zM32,37H33V38H32zM33,37H34V38H33zM34,37H35V38H34zM35,37H36V38H35zM36,37H37V38H36zM40,37H41V38H40zM42,37H43V38H42zM43,37H44V38H43zM44,37H45V38H44zM4,38H5V39H4zM5,38H6V39H5zM6,38H7V39H6zM7,38H8V39H7zM8,38H9V39H8zM9,38H10V39H9zM10,38H11V39H10zM13,38H14V39H13zM14,38H15V39H14zM16,38H17V39H16zM17,38H18V39H17zM27,38H28V39H27zM29,38H30V39H29zM30,38H31V39H30zM32,38H33V39H32zM34,38H35V39H34zM35,38H36V39H35zM36,38H37V39H36zM38,38H39V39H38zM40,38H41V39H40zM42,38H43V39H42zM43,38H44V39H43zM44,38H45V39H44zM4,39H5V40H4zM10,39H11V40H10zM12,39H13V40H12zM13,39H14V40H13zM15,39H16V40H15zM16,39H17V40H16zM17,39H18V40H17zM19,39H20V40H19zM20,39H21V40H20zM21,39H22V40H21zM22,39H23V40H22zM25,39H26V40H25zM28,39H29V40H28zM31,39H32V40H31zM32,39H33V40H32zM33,39H34V40H33zM34,39H35V40H34zM35,39H36V40H35zM36,39H37V40H36zM40,39H41V40H40zM41,39H42V40H41zM43,39H44V40H43zM4,40H5V41H4zM6,40H7V41H6zM7,40H8V41H7zM8,40H9V41H8zM10,40H11V41H10zM12,40H13V41H12zM13,40H14V41H13zM14,40H15V41H14zM15,40H16V41H15zM16,40H17V41H16zM18,40H19V41H18zM19,40H20V41H19zM20,40H21V41H20zM21,40H22V41H21zM22,40H23V41H22zM24,40H25V41H24zM26,40H27V41H26zM27,40H28V41H27zM34,40H35V41H34zM36,40H37V41H36zM37,40H38V41H37zM38,40H39V41H38zM39,40H40V41H39zM40,40H41V41H40zM4,41H5V42H4zM6,41H7V42H6zM7,41H8V42H7zM8,41H9V42H8zM10,41H11V42H10zM13,41H14V42H13zM15,41H16V42H15zM17,41H18V42H17zM18,41H19V42H18zM20,41H21V42H20zM26,41H27V42H26zM27,41H28V42H27zM32,41H33V42H32zM33,41H34V42H33zM34,41H35V42H34zM35,41H36V42H35zM37,41H38V42H37zM40,41H41V42H40zM41,41H42V42H41zM43,41H44V42H43zM44,41H45V42H44zM4,42H5V43H4zM6,42H7V43H6zM7,42H8V43H7zM8,42H9V43H8zM10,42H11V43H10zM12,42H13V43H12zM14,42H15V43H14zM15,42H16V43H15zM16,42H17V43H16zM19,42H20V43H19zM20,42H21V43H20zM21,42H22V43H21zM22,42H23V43H22zM24,42H25V43H24zM26,42H27V43H26zM27,42H28V43H27zM28,42H29V43H28zM29,42H30V43H29zM30,42H31V43H30zM32,42H33V43H32zM33,42H34V43H33zM34,42H35V43H34zM36,42H37V43H36zM39,42H40V43H39zM40,42H41V43H40zM41,42H42V43H41zM42,42H43V43H42zM44,42H45V43H44zM4,43H5V44H4zM10,43H11V44H10zM14,43H15V44H14zM15,43H16V44H15zM17,43H18V44H17zM18,43H19V44H18zM19,43H20V44H19zM23,43H24V44H23zM24,43H25V44H24zM26,43H27V44H26zM28,43H29V44H28zM32,43H33V44H32zM33,43H34V44H33zM36,43H37V44H36zM38,43H39V44H38zM39,43H40V44H39zM41,43H42V44H41zM43,43H44V44H43zM4,44H5V45H4zM5,44H6V45H5zM6,44H7V45H6zM7,44H8V45H7zM8,44H9V45H8zM9,44H10V45H9zM10,44H11V45H10zM13,44H14V45H13zM14,44H15V45H14zM15,44H16V45H15zM16,44H17V45H16zM17,44H18V45H17zM18,44H19V45H18zM19,44H20V45H19zM20,44H21V45H20zM22,44H23V45H22zM26,44H27V45H26zM31,44H32V45H31zM32,44H33V45H32zM33,44H34V45H33zM35,44H36V45H35zM36,44H37V45H36zM37,44H38V45H37zM38,44H39V45H38zM39,44H40V45H39zM40,44H41V45H40zM41,44H42V45H41zM42,44H43V45H42zM43,44H44V45H43zM44,44H45V45H44z" id="qr-path" fill="#000000" fill-opacity="1" fill-rule="nonzero" stroke="none" /></svg>