<?xml version='1.0' encoding='UTF-8'?>
<svg width="49mm" height="49mm" version="1.1" viewBox="0 0 49 49" xmlns="http://www.w3.org/2000/svg"><path d="M4,4H5V5H4zM5,4H6V5H5zM6,4H7V5H6zM7,4H8V5H7zM8,4H9V5H8zM9,4H10V5H9zM10,4H11V5H10zM12,4H13V5H12zM13,4H14V5H13zM15,4H16V5H15zM16,4H17V5H16zM17,4H18V5H17zM19,4H20V5H19zM20,4H21V5H20zM22,4H23V5H22zM24,4H25V5H24zM27,4H28V5H27zM28,4H29V5H28zM29,4H30V5H29zM31,4H32V5H31zM32,4H33V5H32zM34,4H35V5H34zM35,4H36V5H35zM38,4H39V5H38zM39,4H40V5H39zM40,4H41V5H40zM41,4H42V5H41zM42,4H43V5H42zM43,4H44V5H43zM44,4H45V5H44zM4,5H5V6H4zM10,5H11V6H10zM12,5H13V6H12zM14,5H15V6H14zM15,5H16V6H15zM18,5H19V6H18zM19,5H20V6H19zM21,5H22V6H21zM24,5H25V6H24zM27,5H28V6H27zM29,5H30V6H29zM30,5H31V6H30zM31,5H32V6H31zM33,5H34V6H33zM38,5H39V6H38zM44,5H45V6H44zM4,6H5V7H4zM6,6H7V7H6zM7,6H8V7H7zM8,6H9V7H8zM10,6H11V7H10zM13,6H14V7H13zM14,6H15V7H14zM23,6H24V7H23zM25,6H26V7H25zM26,6H27V7H26zM28,6H29V7H28zM29,6H30V7H29zM31,6H32V7H31zM33,6H34V7H33zM35,6H36V7H35zM38,6H39V7H38zM40,6H41V7H40zM41,6H42V7H41zM42,6H43V7H42zM44,6H45V7H44zM4,7H5V8H4zM6,7H7V8H6zM7,7H8V8H7zM8,7H9V8H8zM10,7H11V8H10zM12,7H13V8H12zM13,7H14V8H13zM15,7H16V8H15zM17,7H18V8H17zM20,7H21V8H20zM21,7H22V8H21zM23,7H24V8H23zM24,7H25V8H24zM26,7H27V8H26zM28,7H29V8H28zM29,7H30V8H29zM30,7H31V8H30zM32,7H33V8H32zM33,7H34V8H33zM35,7H36V8H35zM38,7H39V8H38zM40,7H41V8H40zM41,7H42V8H41zM42,7H43V8H42zM44,7H45V8H44zM4,8H5V9H4zM6,8H7V9H6zM7,8H8V9H7zM8,8H9V9H8zM10,8H11V9H10zM12,8H13V9H12zM14,8H15V9H14zM18,8H19V9H18zM19,8H20V9H19zM22,8H23V9H22zM23,8H24V9H23zM24,8H25V9H24zM26,8H27V9H26zM29,8H30V9H29zM30,8H31V9H30zM31,8H32V9H31zM32,8H33V9H32zM38,8H39V9H38zM40,8H41V9H40zM41,8H42V9H41zM42,8H43V9H42zM44,8H45V9H44zM4,9H5V10H4zM10,9H11V10H10zM12,9H13V10H12zM14,9H15V10H14zM15,9H16V10H15zM16,9H17V10H16zM19,9H20V10H19zM25,9H26V10H25zM28,9H29V10H28zM29,9H30V10H29zM31,9H32V10H31zM32,9H33V10H32zM33,9H34V10H33zM34,9H35V10H34zM35,9H36V10H35zM38,9H39V10H38zM44,9H45V10H44zM4,10H5V11H4zM5,10H6V11H5zM6,10H7V11H6zM7,10H8V11H7zM8,10H9V11H8zM9,10H10V11H9zM10,10H11V11H10zM12,10H13V11H12zM14,10H15V11H14zM16,10H17V11H16zM18,10H19V11H18zM20,10H21V11H20zM22,10H23V11H22zM24,10H25V11H24zM26,10H27V11H26zM28,10H29V11H28zM30,10H31V11H30zM32,10H33V11H32zM34,10H35V11H34zM36,10H37V11H36zM38,10H39V11H38zM39,10H40V11H39zM40,10H41V11H40zM41,10H42V11H41zM42,10H43V11H42zM43,10H44V11H43zM44,10H45V11H44zM13,11H14V12H13zM14,11H15V12H14zM15,11H16V12H15zM16,11H17V12H16zM18,11H19V12H18zM19,11H20V12H19zM20,11H21V12H20zM21,11H22V12H21zM22,11H23V12H22zM23,11H24V12H23zM24,11H25V12H24zM26,11H27V12H26zM27,11H28V12H27zM30,11H31V12H30zM31,11H32V12H31zM33,11H34V12H33zM34,11H35V12H34zM35,11H36V12H35zM36,11H37V12H36zM7,12H8V13H7zM10,12H11V13H10zM13,12H14V13H13zM15,12H16V13H15zM17,12H18V13H17zM20,12H21V13H20zM21,12H22V13H21zM24,12H25V13H24zM25,12H26V13H25zM27,12H28V13H27zM28,12H29V13H28zM30,12H31V13H30zM32,12H33V13H32zM35,12H36V13H35zM36,12H37V13H36zM39,12H40V13H39zM40,12H41V13H40zM41,12H42V13H41zM43,12H44V13H43zM44,12H45V13H44zM4,13H5V14H4zM6,13H7V14H6zM7,13H8V14H7zM9,13H10V14H9zM11,13H12V14H11zM12,13H13V14H12zM13,13H14V14H13zM16,13H17V14H16zM21,13H22V14H21zM23,13H24V14H23zM24,13H25V14H24zM29,13H30V14H29zM30,13H31V14H30zM32,13H33V14H32zM33,13H34V14H33zM36,13H37V14H36zM38,13H39V14H38zM41,13H42V14H41zM42,13H43V14H42zM43,13H44V14H43zM6,14H7V15H6zM7,14H8V15H7zM9,14H10V15H9zM10,14H11V15H10zM12,14H13V15H12zM13,14H14V15H13zM14,14H15V15H14zM16,14H17V15H16zM17,14H18V15H17zM18,14H19V15H18zM20,14H21V15H20zM21,14H22V15H21zM22,14H23V15H22zM23,14H24V15H23zM24,14H25V15H24zM25,14H26V15H25zM27,14H28V15H27zM29,14H30V15H29zM30,14H31V15H30zM32,14H33V15H32zM34,14H35V15H34zM35,14H36V15H35zM39,14H40V15H39zM40,14H41V15H40zM41,14H42V15H41zM42,14H43V15H42zM5,15H6V16H5zM7,15H8V16H7zM11,15H12V16H11zM12,15H13V16H12zM13,15H14V16H13zM14,15H15V16H14zM16,15H17V16H16zM18,15H19V16H18zM19,15H20V16H19zM22,15H23V16H22zM24,15H25V16H24zM25,15H26V16H25zM26,15H27V16H26zM27,15H28V16H27zM28,15H29V16H28zM29,15H30V16H29zM30,15H31V16H30zM34,15H35V16H34zM42,15H43V16H42zM43,15H44V16H43zM5,16H6V17H5zM6,16H7V17H6zM7,16H8V17H7zM9,16H10V17H9zM10,16H11V17H10zM11,16H12V17H11zM12,16H13V17H12zM13,16H14V17H13zM17,16H18V17H17zM18,16H19V17H18zM20,16H21V17H20zM22,16H23V17H22zM23,16H24V17H23zM25,16H26V17H25zM26,16H27V17H26zM28,16H29V17H28zM29,16H30V17H29zM30,16H31V17H30zM33,16H34V17H33zM35,16H36V17H35zM36,16H37V17H36zM38,16H39V17H38zM39,16H40V17H39zM41,16H42V17H41zM44,16H45V17H44zM5,17H6V18H5zM8,17H9V18H8zM9,17H10V18H9zM11,17H12V18H11zM12,17H13V18H12zM13,17H14V18H13zM15,17H16V18H15zM16,17H17V18H16zM18,17H19V18H18zM20,17H21V18H20zM22,17H23V18H22zM25,17H26V18H25zM26,17H27V18H26zM27,17H28V18H27zM29,17H30V18H29zM30,17H31V18H30zM31,17H32V18H31zM32,17H33V18H32zM36,17H37V18H36zM38,17H39V18H38zM39,17H40V18H39zM43,17H44V18H43zM4,18H5V19H4zM7,18H8V19H7zM9,18H10V19H9zM10,18H11V19H10zM11,18H12V19H11zM12,18H13V19H12zM15,18H16V19H15zM16,18H17V19H16zM17,18H18V19H17zM18,18H19V19H18zM20,18H21V19H20zM21,18H22V19H21zM22,18H23V19H22zM23,18H24V19H23zM24,18H25V19H24zM25,18H26V19H25zM27,18H28V19H27zM28,18H29V19H28zM35,18H36V19H35zM38,18H39V19H38zM39,18H40V19H39zM43,18H44V19H43zM44,18H45V19H44zM4,19H5V20H4zM7,19H8V20H7zM8,19H9V20H8zM9,19H10V20H9zM11,19H12V20H11zM16,19H17V20H16zM17,19H18V20H17zM19,19H20V20H19zM20,19H21V20H20zM23,19H24V20H23zM27,19H28V20H27zM28,19H29V20H28zM31,19H32V20H31zM33,19H34V20H33zM34,19H35V20H34zM36,19H37V20H36zM38,19H39V20H38zM39,19H40V20H39zM41,19H42V20H41zM44,19H45V20H44zM4,20H5V21H4zM6,20H7V21H6zM7,20H8V21H7zM8,20H9V21H8zM10,20H11V21H10zM11,20H12V21H11zM14,20H15V21H14zM17,20H18V21H17zM20,20H21V21H20zM21,20H22V21H21zM24,20H25V21H24zM25,20H26V21H25zM26,20H27V21H26zM27,20H28V21H27zM28,20H29V21H28zM29,20H30V21H29zM30,20H31V21H30zM33,20H34V21H33zM36,20H37V21H36zM39,20H40V21H39zM12,21H13V22H12zM13,21H14V22H13zM15,21H16V22H15zM16,21H17V22H16zM17,21H18V22H17zM19,21H20V22H19zM20,21H21V22H20zM22,21H23V22H22zM23,21H24V22H23zM24,21H25V22H24zM26,21H27V22H26zM27,21H28V22H27zM28,21H29V22H28zM29,21H30V22H29zM30,21H31V22H30zM33,21H34V22H33zM38,21H39V22H38zM39,21H40V22H39zM42,21H43V22H42zM44,21H45V22H44zM6,22H7V23H6zM7,22H8V23H7zM8,22H9V23H8zM10,22H11V23H10zM11,22H12V23H11zM12,22H13V23H12zM19,22H20V23H19zM20,22H21V23H20zM21,22H22V23H21zM22,22H23V23H22zM24,22H25V23H24zM25,22H26V23H25zM26,22H27V23H26zM29,22H30V23H29zM32,22H33V23H32zM33,22H34V23H33zM37,22H38V23H37zM38,22H39V23H38zM40,22H41V23H40zM41,22H42V23H41zM42,22H43V23H42zM43,22H44V23H43zM44,22H45V23H44zM5,23H6V24H5zM7,23H8V24H7zM8,23H9V24H8zM11,23H12V24H11zM15,23H16V24H15zM16,23H17V24H16zM17,23H18V24H17zM20,23H21V24H20zM23,23H24V24H23zM24,23H25V24H24zM30,23H31V24H30zM31,23H32V24H31zM32,23H33V24H32zM35,23H36V24H35zM36,23H37V24H36zM37,23H38V24H37zM39,23H40V24H39zM41,23H42V24H41zM4,24H5V25H4zM5,24H6V25H5zM7,24H8V25H7zM8,24H9V25H8zM9,24H10V25H9zM10,24H11V25H10zM11,24H12V25H11zM14,24H15V25H14zM15,24H16V25H15zM16,24H17V25H16zM18,24H19V25H18zM19,24H20V25H19zM20,24H21V25H20zM21,24H22V25H21zM22,24H23V25H22zM26,24H27V25H26zM29,24H30V25H29zM30,24H31V25H30zM31,24H32V25H31zM32,24H33V25H32zM33,24H34V25H33zM35,24H36V25H35zM38,24H39V25H38zM39,24H40V25H39zM40,24H41V25H40zM42,24H43V25H42zM43,24H44V25H43zM4,25H5V26H4zM5,25H6V26H5zM12,25H13V26H12zM13,25H14V26H13zM14,25H15V26H14zM18,25H19V26H18zM19,25H20V26H19zM22,25H23V26H22zM23,25H24V26H23zM24,25H25V26H24zM25,25H26V26H25zM28,25H29V26H28zM29,25H30V26H29zM32,25H33V26H32zM36,25H37V26H36zM37,25H38V26H37zM38,25H39V26H38zM40,25H41V26H40zM42,25H43V26H42zM43,25H44V26H43zM44,25H45V26H44zM4,26H5V27H4zM5,26H6V27H5zM6,26H7V27H6zM8,26H9V27H8zM9,26H10V27H9zM10,26H11V27H10zM12,26H13V27H12zM14,26H15V27H14zM16,26H17V27H16zM18,26H19V27H18zM20,26H21V27H20zM23,26H24V27H23zM24,26H25V27H24zM26,26H27V27H26zM27,26H28V27H27zM28,26H29V27H28zM33,26H34V27H33zM35,26H36V27H35zM36,26H37V27H36zM41,26H42V27H41zM43,26H44V27H43zM5,27H6V28H5zM6,27H7V28H6zM7,27H8V28H7zM8,27H9V28H8zM9,27H10V28H9zM12,27H13V28H12zM14,27H15V28H14zM15,27H16V28H15zM16,27H17V28H16zM17,27H18V28H17zM20,27H21V28H20zM23,27H24V28H23zM24,27H25V28H24zM27,27H28V28H27zM28,27H29V28H28zM29,27H30V28H29zM30,27H31V28H30zM32,27H33V28H32zM34,27H35V28H34zM36,27H37V28H36zM37,27H38V28H37zM39,27H40V28H39zM40,27H41V28H40zM6,28H7V29H6zM7,28H8V29H7zM8,28H9V29H8zM9,28H10V29H9zM10,28H11V29H10zM12,28H13V29H12zM14,28H15V29H14zM21,28H22V29H21zM23,28H24V29H23zM24,28H25V29H24zM25,28H26V29H25zM26,28H27V29H26zM33,28H34V29H33zM36,28H37V29H36zM37,28H38V29H37zM38,28H39V29H38zM42,28H43V29H42zM43,28H44V29H43zM4,29H5V30H4zM5,29H6V30H5zM7,29H8V30H7zM8,29H9V30H8zM9,29H10V30H9zM12,29H13V30H12zM13,29H14V30H13zM15,29H16V30H15zM16,29H17V30H16zM17,29H18V30H17zM18,29H19V30H18zM23,29H24V30H23zM25,29H26V30H25zM26,29H27V30H26zM28,29H29V30H28zM29,29H30V30H29zM30,29H31V30H30zM34,29H35V30H34zM35,29H36V30H35zM41,29H42V30H41zM5,30H6V31H5zM7,30H8V31H7zM8,30H9V31H8zM10,30H11V31H10zM12,30H13V31H12zM15,30H16V31H15zM17,30H18V31H17zM18,30H19V31H18zM19,30H20V31H19zM20,30H21V31H20zM22,30H23V31H22zM25,30H26V31H25zM30,30H31V31H30zM36,30H37V31H36zM37,30H38V31H37zM39,30H40V31H39zM44,30H45V31H44zM4,31H5V32H4zM5,31H6V32H5zM6,31H7V32H6zM7,31H8V32H7zM12,31H13V32H12zM15,31H16V32H15zM16,31H17V32H16zM18,31H19V32H18zM20,31H21V32H20zM21,31H22V32H21zM22,31H23V32H22zM23,31H24V32H23zM25,31H26V32H25zM26,31H27V32H26zM28,31H29V32H28zM33,31H34V32H33zM36,31H37V32H36zM37,31H38V32H37zM38,31H39V32H38zM40,31H41V32H40zM6,32H7V33H6zM7,32H8V33H7zM9,32H10V33H9zM10,32H11V33H10zM11,32H12V33H11zM13,32H14V33H13zM15,32H16V33H15zM16,32H17V33H16zM17,32H18V33H17zM19,32H20V33H19zM20,32H21V33H20zM23,32H24V33H23zM24,32H25V33H24zM26,32H27V33H26zM27,32H28V33H27zM29,32H30V33H29zM31,32H32V33H31zM33,32H34V33H33zM34,32H35V33H34zM37,32H38V33H37zM38,32H39V33H38zM39,32H40V33H39zM15,33H16V34H15zM17,33H18V34H17zM18,33H19V34H18zM23,33H24V34H23zM26,33H27V34H26zM29,33H30V34H29zM30,33H31V34H30zM31,33H32V34H31zM32,33H33V34H32zM33,33H34V34H33zM35,33H36V34H35zM36,33H37V34H36zM37,33H38V34H37zM41,33H42V34H41zM42,33H43V34H42zM43,33H44V34H43zM44,33H45V34H44zM4,34H5V35H4zM6,34H7V35H6zM7,34H8V35H7zM9,34H10V35H9zM10,34H11V35H10zM11,34H12V35H11zM12,34H13V35H12zM13,34H14V35H13zM14,34H15V35H14zM15,34H16V35H15zM16,34H17V35H16zM17,34H18V35H17zM20,34H21V35H20zM22,34H23V35H22zM23,34H24V35H23zM24,34H25V35H24zM28,34H29V35H28zM30,34H31V35H30zM31,34H32V35H31zM32,34H33V35H32zM33,34H34V35H33zM40,34H41V35H40zM43,34H44V35H43zM44,34H45V35H44zM7,35H8V36H7zM9,35H10V36H9zM11,35H12V36H11zM13,35H14V36H13zM15,35H16V36H15zM17,35H18V36H17zM18,35H19V36H18zM20,35H21V36H20zM21,35H22V36H21zM22,35H23V36H22zM27,35H28V36H27zM28,35H29V36H28zM33,35H34V36H33zM34,35H35V36H34zM37,35H38V36H37zM39,35H40V36H39zM43,35H44V36H43zM4,36H5V37H4zM6,36H7V37H6zM7,36H8V37H7zM9,36H10V37H9zM10,36H11V37H10zM11,36H12V37H11zM12,36H13V37H12zM13,36H14V37H13zM16,36H17V37H16zM18,36H19V37H18zM21,36H22V37H21zM23,36H24V37H23zM26,36H27V37H26zM27,36H28V37H27zM28,36H29V37H28zM31,36H32V37H31zM32,36H33V37H32zM36,36H37V37H36zM37,36H38V37H37zM38,36H39V37H38zM39,36H40V37H39zM40,36H41V37H40zM41,36H42V37H41zM42,36H43V37H42zM44,36H45V37H44zM12,37H13V38H12zM19,37H20V38H19zM20,37H21V38H20zM22,37H23V38H22zM23,37H24V38H23zM26,37H27V38H26zM27,37H28V38H27zM28,37H29V38H28zM29,37H30V38H29zM32,37H33V38H32zM33,37H34V38H33zM34,37H35V38H34zM35,37H36V38H35zM36,37H37V38H36zM40,37H41V38H40zM42,37H43V38H42zM43,37H44V38H43zM44,37H45V38H44zM4,38H5V39H4zM5,38H6V39H5zM6,38H7V39H6zM7,38H8V39H7zM8,38H9V39H8zM9,38H10V39H9zM10,38H11V39H10zM16,38H17V39H16zM17,38H18V39H17zM18,38H19V39H18zM20,38H21V39H20zM23,38H24V39H23zM26,38H27V39H26zM27,38H28V39H27zM30,38H31V39H30zM34,38H35V39H34zM36,38H37V39H36zM38,38H39V39H38zM40,38H41V39H40zM41,38H42V39H41zM42,38H43V39H42zM43,38H44V39H43zM4,39H5V40H4zM10,39H11V40H10zM14,39H15V40H14zM16,39H17V40H16zM18,39H19V40H18zM19,39H20V40H19zM20,39H21V40H20zM21,39H22V40H21zM24,39H25V40H24zM26,39H27V40H26zM27,39H28V40H27zM28,39H29V40H28zM31,39H32V40H31zM32,39H33V40H32zM34,39H35V40H34zM35,39H36V40H35zM36,39H37V40H36zM40,39H41V40H40zM41,39H42V40H41zM42,39H43V40H42zM43,39H44V40H43zM4,40H5V41H4zM6,40H7V41H6zM7,40H8V41H7zM8,40H9V41H8zM10,40H11V41H10zM13,40H14V41H13zM14,40H15V41H14zM15,40H16V41H15zM16,40H17V41H16zM18,40H19V41H18zM19,40H20V41H19zM20,40H21V41H20zM22,40H23V41H22zM24,40H25V41H24zM25,40H26V41H25zM27,40H28V41H27zM34,40H35V41H34zM36,40H37V41H36zM37,40H38V41H37zM38,40H39V41H38zM39,40H40V41H39zM40,40H41V41H40zM4,41H5V42H4zM6,41H7V42H6zM7,41H8V42H7zM8,41H9V42H8zM10,41H11V42H10zM12,41H13V42H12zM13,41H14V42H13zM14,41H15V42H14zM15,41H16V42H15zM18,41H19V42H18zM22,41H23V42H22zM23,41H24V42H23zM27,41H28V42H27zM29,41H30V42H29zM33,41H34V42H33zM34,41H35V42H34zM37,41H38V42H37zM38,41H39V42H38zM40,41H41V42H40zM43,41H44V42H43zM4,42H5V43H4zM6,42H7V43H6zM7,42H8V43H7zM8,42H9V43H8zM10,42H11V43H10zM14,42H15V43H14zM16,42H17V43H16zM18,42H19V43H18zM19,42H20V43H19zM20,42H21V43H20zM22,42H23V43H22zM26,42H27V43H26zM28,42H29V43H28zM29,42H30V43H29zM32,42H33V43H32zM34,42H35V43H34zM40,42H41V43H40zM41,42H42V43H41zM44,42H45V43H44zM4,43H5V44H4zM10,43H11V44H10zM14,43H15V44H14zM15,43H16V44H15zM17,43H18V44H17zM18,43H19V44H18zM19,43H20V44H19zM23,43H24V44H23zM24,43H25V44H24zM26,43H27V44H26zM28,43H29V44H28zM32,43H33V44H32zM33,43H34V44H33zM36,43H37V44H36zM38,43H39V44H38zM39,43H40V44H39zM41,43H42V44H41zM43,43H44V44H43zM4,44H5V45H4zM5,44H6V45H5zM6,44H7V45H6zM7,44H8V45H7zM8,44H9V45H8zM9,44H10V45H9zM10,44H11V45H10zM13,44H14V45H13zM15,44H16V45H15zM16,44H17V45H16zM18,44H19V45H18zM19,44H20V45H19zM22,44H23V45H22zM23,44H24V45H23zM29,44H30V45H29zM31,44H32V45H31zM33,44H34V45H33zM36,44H37V45H36zM37,44H38V45H37zM39,44H40V45H39zM40,44H41V45H40zM42,44H43V45H42zM43,44H44V45H43z" id="qr-path" fill="#000000" fill-opacity="1" fill-rule="nonzero" stroke="none"/></svg>